<?xml version="1.0" standalone="no"?>
<!DOCTYPE svg PUBLIC "-//W3C//DTD SVG 20010904//EN"
 "http://www.w3.org/TR/2001/REC-SVG-20010904/DTD/svg10.dtd">
<svg version="1.0" xmlns="http://www.w3.org/2000/svg"
 width="475.000000pt" height="489.000000pt" viewBox="0 0 475.000000 489.000000"
 preserveAspectRatio="xMidYMid meet">

<g transform="translate(0.000000,489.000000) scale(0.100000,-0.100000)"
fill="#000000" stroke="none">
<path d="M3338 4186 c-40 -14 -141 -86 -133 -95 3 -2 19 5 35 17 16 12 31 22
33 22 2 0 1 -20 -3 -45 -5 -31 -3 -42 4 -37 6 3 23 5 38 3 30 -3 68 14 68 30
0 12 -40 8 -72 -6 -13 -5 -18 -3 -18 9 0 14 10 16 68 14 51 -2 67 -7 68 -18 3
-49 4 -50 26 -41 27 10 88 -7 88 -25 0 -7 -31 -75 -69 -151 -174 -345 -256
-756 -235 -1166 l9 -162 46 2 c63 2 329 92 465 157 91 44 115 60 134 91 13 21
38 43 57 52 31 12 38 12 60 -2 29 -20 41 -14 18 9 -22 21 -64 31 -84 19 -9 -5
-29 -30 -46 -56 -33 -51 -90 -86 -246 -150 -87 -36 -345 -117 -372 -117 -24 0
-26 42 -16 291 9 238 32 393 74 502 8 20 15 58 15 83 0 25 4 43 8 40 9 -5 48
119 57 183 9 71 44 169 97 275 79 157 76 237 -7 272 -43 17 -118 17 -167 0z"/>
<path d="M2303 4043 c9 -2 25 -2 35 0 9 3 1 5 -18 5 -19 0 -27 -2 -17 -5z"/>
<path d="M2258 4033 c7 -3 16 -2 19 1 4 3 -2 6 -13 5 -11 0 -14 -3 -6 -6z"/>
<path d="M2395 4024 c21 -8 51 -24 64 -37 l26 -22 -20 24 c-24 27 -67 51 -92
50 -10 0 0 -7 22 -15z"/>
<path d="M3275 3984 c-24 -37 -13 -53 13 -16 12 17 18 33 13 36 -5 3 -16 -6
-26 -20z"/>
<path d="M2273 3970 c-36 -22 -56 -52 -47 -73 3 -8 1 -18 -5 -22 -14 -8 -14
-52 -1 -60 21 -13 48 6 53 38 3 18 7 41 10 52 2 11 -1 23 -7 27 -7 5 -4 8 7 8
22 0 87 -50 87 -67 0 -7 5 -13 10 -13 6 0 10 7 10 15 0 8 6 15 14 15 20 0 30
38 15 56 -18 22 -64 44 -91 44 -13 0 -37 -9 -55 -20z"/>
<path d="M3015 3782 c-104 -172 -416 -630 -601 -882 -184 -252 -288 -400 -281
-400 2 0 28 33 58 73 311 422 367 500 496 682 121 172 398 613 390 621 -2 2
-30 -40 -62 -94z"/>
<path d="M1667 3806 c-21 -8 -48 -22 -59 -33 -27 -24 -78 -93 -78 -106 0 -6
13 10 29 35 44 69 105 101 195 102 101 0 172 -40 239 -134 16 -23 17 -23 6 -2
-18 40 -81 102 -123 124 -52 27 -157 34 -209 14z"/>
<path d="M1702 3753 c-18 -8 -46 -33 -63 -55 -28 -35 -31 -44 -27 -90 4 -42
11 -56 34 -75 28 -22 47 -24 127 -14 11 1 -14 26 -34 33 -20 8 -29 50 -17 72
13 23 65 21 78 -4 14 -26 70 -36 107 -18 39 18 42 56 7 97 -55 65 -143 88
-212 54z"/>
<path d="M2522 3730 c-1 -19 3 -53 7 -75 8 -35 9 -36 9 -10 0 17 -3 50 -7 75
-8 42 -9 43 -9 10z"/>
<path d="M3782 3593 c-7 -85 -17 -164 -23 -175 -6 -11 -8 -22 -6 -25 3 -2 11
12 18 31 11 31 38 51 39 29 1 -5 12 -21 26 -38 15 -16 23 -24 19 -17 -17 32
-45 191 -45 256 0 130 -16 97 -28 -61z"/>
<path d="M1521 3634 c0 -11 3 -14 6 -6 3 7 2 16 -1 19 -3 4 -6 -2 -5 -13z"/>
<path d="M2013 3633 c18 -34 81 -133 84 -133 5 0 5 1 -42 78 -21 34 -40 62
-42 62 -2 0 -2 -3 0 -7z"/>
<path d="M1516 3583 c9 -38 14 -42 14 -10 0 14 -5 29 -10 32 -7 4 -8 -3 -4
-22z"/>
<path d="M2532 3590 c0 -14 2 -19 5 -12 2 6 2 18 0 25 -3 6 -5 1 -5 -13z"/>
<path d="M1570 3462 c20 -41 20 -46 6 -82 -14 -35 -14 -39 2 -53 33 -29 62
-37 159 -47 78 -8 107 -16 142 -38 62 -37 126 -120 147 -187 21 -66 43 -88 86
-87 25 0 41 10 66 38 43 51 46 67 28 165 -12 66 -15 72 -11 29 2 -30 7 -70 11
-88 8 -42 -9 -62 -52 -62 -36 0 -64 28 -64 65 0 30 -52 114 -102 164 -50 51
-128 91 -179 91 -39 0 -120 25 -159 48 -14 9 -42 32 -64 51 l-38 36 22 -43z"/>
<path d="M2115 3460 c9 -16 18 -30 21 -30 2 0 -2 14 -11 30 -9 17 -18 30 -21
30 -2 0 2 -13 11 -30z"/>
<path d="M2362 3465 c0 -16 2 -22 5 -12 2 9 2 23 0 30 -3 6 -5 -1 -5 -18z"/>
<path d="M2366 3393 c-17 -62 -16 -80 4 -98 11 -10 20 -13 20 -7 0 6 -5 14
-11 18 -7 4 -9 24 -5 55 7 48 2 66 -8 32z"/>
<path d="M2475 3370 c-4 -17 -5 -34 -2 -36 2 -3 7 10 11 27 8 42 0 50 -9 9z"/>
<path d="M3879 3361 c18 -14 21 -20 10 -25 -11 -5 -11 -7 -1 -12 8 -4 -1 -18
-28 -42 -23 -21 -47 -55 -55 -77 -14 -39 -14 -39 -15 -10 -2 51 -14 66 -70 90
-46 19 -50 24 -32 29 19 6 20 9 8 21 -11 11 -37 12 -152 3 -161 -13 -199 -28
-68 -28 106 0 210 -16 241 -36 12 -7 27 -32 33 -55 16 -59 40 -224 41 -283 1
-41 3 -46 9 -26 4 14 9 50 9 80 2 71 26 217 42 252 16 37 58 54 169 68 52 7
102 15 110 18 8 3 -38 11 -103 18 -64 7 -126 18 -136 24 -31 16 -38 11 -12 -9z"/>
<path d="M2171 3314 c0 -11 3 -14 6 -6 3 7 2 16 -1 19 -3 4 -6 -2 -5 -13z"/>
<path d="M2181 3274 c0 -11 3 -14 6 -6 3 7 2 16 -1 19 -3 4 -6 -2 -5 -13z"/>
<path d="M2410 3280 c-8 -5 -10 -10 -5 -10 6 0 17 5 25 10 8 5 11 10 5 10 -5
0 -17 -5 -25 -10z"/>
<path d="M2829 3003 c-63 -87 -157 -216 -209 -288 -51 -71 -116 -158 -143
-192 -27 -35 -45 -68 -41 -74 11 -19 520 13 541 35 3 3 1 68 -5 144 -7 76 -12
227 -12 335 0 108 -4 197 -8 197 -5 0 -60 -71 -123 -157z m118 -182 c0 -170
-3 -314 -7 -321 -10 -17 -114 -29 -307 -37 -118 -4 -173 -3 -173 4 0 6 76 111
168 234 92 123 190 256 217 294 62 90 95 135 99 135 1 0 2 -139 3 -309z"/>
<path d="M4016 2763 c-6 -14 -5 -15 5 -6 7 7 10 15 7 18 -3 3 -9 -2 -12 -12z"/>
<path d="M3932 2698 c-7 -7 -11 -28 -11 -47 l1 -36 7 35 c4 20 11 41 15 48 9
15 3 15 -12 0z"/>
<path d="M1077 2670 c-57 -17 -89 -67 -90 -141 -1 -36 6 -57 28 -91 28 -42 29
-42 35 -18 4 16 12 24 23 22 10 -2 17 4 17 13 0 8 5 15 11 15 7 0 9 10 5 24
-5 20 1 30 30 52 28 22 37 25 44 14 4 -7 15 -10 25 -7 9 4 13 11 10 17 -3 6 0
13 8 16 9 3 18 16 21 30 4 13 11 24 17 24 24 0 92 -44 133 -86 48 -51 76 -54
76 -9 0 14 3 25 6 25 3 0 69 -16 147 -35 171 -41 283 -61 397 -71 77 -6 87 -4
100 12 14 18 14 18 -3 5 -12 -10 -32 -12 -65 -8 -273 35 -577 104 -767 172
-96 35 -152 42 -208 25z"/>
<path d="M3906 2528 c-3 -40 -8 -291 -10 -558 l-4 -485 8 415 c4 228 11 479
14 558 8 150 3 192 -8 70z"/>
<path d="M3630 2528 c-58 -28 -159 -70 -225 -95 -66 -25 -125 -50 -131 -56
-24 -25 53 -391 130 -614 58 -172 129 -304 242 -452 56 -73 38 -38 -26 51
-110 153 -199 368 -273 658 -35 135 -65 316 -54 326 3 3 38 16 77 30 93 31
174 70 278 133 46 28 88 51 94 51 7 0 9 -28 4 -87 -3 -49 -9 -145 -13 -215 -5
-117 -4 -128 12 -134 34 -13 42 19 49 193 3 93 8 186 11 208 2 22 -2 6 -10
-35 -7 -41 -16 -137 -20 -213 -5 -95 -11 -137 -19 -134 -6 2 -10 13 -9 23 1
10 5 108 9 217 6 166 5 197 -7 196 -8 0 -61 -23 -119 -51z"/>
<path d="M1490 2520 c0 -5 5 -10 10 -10 6 0 10 5 10 10 0 6 -4 10 -10 10 -5 0
-10 -4 -10 -10z"/>
<path d="M1470 2486 c0 -15 18 -31 26 -23 7 7 -7 37 -17 37 -5 0 -9 -6 -9 -14z"/>
<path d="M3853 1915 l1 -410 6 385 c3 212 2 396 -1 410 -4 14 -7 -159 -6 -385z"/>
<path d="M2835 2275 c-158 -36 -383 -71 -524 -83 l-84 -7 -69 -100 c-159 -228
-302 -445 -294 -445 3 0 48 64 102 143 53 78 125 178 158 221 34 44 64 84 67
89 3 5 62 17 130 27 149 23 319 52 489 85 108 21 128 28 144 50 13 18 24 24
38 19 15 -4 19 -2 16 12 -1 9 -7 18 -13 20 -5 1 -77 -13 -160 -31z"/>
<path d="M3013 2210 c0 -25 2 -35 4 -22 2 12 2 32 0 45 -2 12 -4 2 -4 -23z"/>
<path d="M1620 2191 c0 -15 41 -165 47 -171 2 -3 3 13 1 35 l-3 40 88 3 c105
3 107 -1 47 -96 -36 -57 -74 -132 -66 -132 6 0 176 286 176 297 0 12 -73 24
-130 22 -19 -1 -63 2 -97 6 -43 5 -63 4 -63 -4z"/>
<path d="M1309 2118 c-1 -63 -2 -68 -10 -40 -5 17 -12 32 -14 32 -11 0 -4 -78
9 -95 14 -19 15 -19 27 8 7 15 15 27 19 27 3 0 34 -57 68 -127 65 -135 98
-242 109 -357 l6 -69 20 49 c35 89 5 278 -68 429 -42 86 -135 215 -155 215 -6
0 -10 -33 -11 -72z"/>
<path d="M1208 2108 c-4 -164 -3 -230 5 -235 4 -2 7 66 7 151 0 158 -8 217
-12 84z"/>
<path d="M3020 2111 c0 -23 4 -61 9 -84 5 -23 15 -69 21 -102 35 -181 40 -199
46 -192 5 4 -65 409 -72 416 -2 2 -4 -15 -4 -38z"/>
<path d="M1682 1875 c0 -16 2 -22 5 -12 2 9 2 23 0 30 -3 6 -5 -1 -5 -18z"/>
<path d="M1690 1830 c0 -5 4 -10 9 -10 6 0 13 5 16 10 3 6 -1 10 -9 10 -9 0
-16 -4 -16 -10z"/>
<path d="M3102 1690 c0 -19 2 -27 5 -17 2 9 2 25 0 35 -3 9 -5 1 -5 -18z"/>
<path d="M3332 1648 c2 -12 8 -23 14 -25 7 -2 10 6 7 22 -6 30 -26 34 -21 3z"/>
<path d="M1845 1619 c-4 -6 -5 -12 -2 -15 2 -3 7 2 10 11 7 17 1 20 -8 4z"/>
<path d="M3395 1600 c3 -5 8 -10 11 -10 2 0 4 5 4 10 0 6 -5 10 -11 10 -5 0
-7 -4 -4 -10z"/>
<path d="M3415 1578 c-10 -27 -2 -46 17 -39 14 5 15 9 3 31 -12 21 -15 23 -20
8z"/>
<path d="M3141 1524 c0 -11 3 -14 6 -6 3 7 2 16 -1 19 -3 4 -6 -2 -5 -13z"/>
<path d="M3406 1517 c-11 -8 -16 -19 -12 -26 6 -8 12 -9 20 -2 15 12 26 5 26
-17 0 -8 7 -20 16 -27 16 -11 16 -12 0 -18 -10 -4 -16 -1 -16 8 0 8 -7 15 -15
15 -20 0 -19 -17 3 -29 10 -6 17 -21 17 -38 0 -22 4 -27 20 -25 11 2 28 3 38
3 29 0 5 70 -41 118 -9 10 -21 25 -27 35 -9 15 -12 15 -29 3z"/>
<path d="M3304 1465 c6 -19 14 -31 19 -26 9 9 -9 61 -21 61 -5 0 -4 -16 2 -35z"/>
<path d="M3343 1393 c-7 -3 -13 -13 -13 -24 0 -24 65 -58 80 -43 13 13 -49 74
-67 67z"/>
<path d="M3203 1360 c4 -13 -29 -15 -252 -17 -141 -1 -281 -6 -311 -12 -46 -8
-37 -9 50 -4 58 4 201 6 318 5 116 0 212 2 212 6 0 4 -5 14 -11 22 -10 13 -10
13 -6 0z"/>
<path d="M1462 1340 c-25 -40 -2 -123 29 -104 9 5 10 2 6 -9 -11 -30 54 -21
93 12 27 23 30 29 14 25 -37 -10 -93 22 -109 61 -9 19 -16 35 -18 35 -1 0 -8
-9 -15 -20z"/>
<path d="M2420 1309 c-141 -21 -310 -53 -306 -57 3 -2 47 3 98 12 51 9 145 22
208 31 165 21 171 22 110 22 -30 1 -80 -3 -110 -8z"/>
<path d="M3696 1247 c3 -10 9 -15 12 -12 3 3 0 11 -7 18 -10 9 -11 8 -5 -6z"/>
<path d="M2068 1243 c6 -2 18 -2 25 0 6 3 1 5 -13 5 -14 0 -19 -2 -12 -5z"/>
<path d="M2688 1153 c56 -2 148 -2 205 0 56 1 10 3 -103 3 -113 0 -159 -2
-102 -3z"/>
<path d="M3028 1143 c12 -2 30 -2 40 0 9 3 -1 5 -23 4 -22 0 -30 -2 -17 -4z"/>
<path d="M3108 1133 c6 -2 18 -2 25 0 6 3 1 5 -13 5 -14 0 -19 -2 -12 -5z"/>
<path d="M2715 1100 c66 -10 154 -26 195 -34 41 -9 79 -16 83 -16 5 0 5 -5 2
-10 -4 -6 -13 -7 -23 -1 -9 4 -39 7 -67 6 -27 -1 -69 2 -92 5 -23 4 -47 3 -55
-1 -10 -7 -8 -9 7 -10 34 -3 39 -5 61 -17 12 -6 24 -9 26 -6 3 2 18 0 33 -6
38 -15 27 -21 -19 -10 -30 7 -41 5 -55 -9 -9 -9 -22 -16 -28 -14 -25 9 -394
28 -410 21 -11 -4 1 -7 31 -7 53 -1 454 -55 521 -71 59 -13 294 -70 338 -81
l37 -10 0 -159 c0 -87 3 -161 8 -163 4 -3 6 72 5 166 -4 278 -6 373 -11 355
-4 -19 -32 -23 -60 -9 -54 27 -227 61 -444 85 -184 21 -232 19 -83 -4z"/>
<path d="M3364 1078 c-5 -7 -9 -67 -11 -133 -2 -66 -5 -158 -8 -205 -3 -47 -2
-112 3 -145 9 -56 10 -53 11 57 1 140 3 148 39 139 38 -11 44 -56 39 -321 -2
-139 0 -202 5 -165 4 33 7 191 7 350 -1 160 3 301 7 315 7 22 6 23 -9 12 -9
-7 -28 -12 -44 -10 -25 3 -28 8 -31 41 -2 21 2 44 8 52 7 8 7 15 1 19 -5 4
-13 1 -17 -6z"/>
<path d="M3505 1041 c-14 -24 -27 -813 -12 -804 4 2 7 101 7 219 0 198 1 214
18 214 9 0 64 -27 122 -60 121 -69 159 -75 206 -34 16 14 41 31 55 39 53 28
58 97 11 149 -26 28 -182 103 -295 141 l-102 34 0 56 c0 58 0 60 -10 46z m290
-361 c5 -8 11 -7 21 1 11 9 16 6 24 -16 13 -35 6 -45 -34 -45 -30 0 -59 21
-80 58 -9 15 60 17 69 2z"/>
<path d="M2138 1003 c7 -3 16 -2 19 1 4 3 -2 6 -13 5 -11 0 -14 -3 -6 -6z"/>
<path d="M1700 957 c-68 -22 -119 -42 -113 -44 11 -4 213 50 231 61 4 2 48 7
97 11 50 4 92 9 94 11 2 2 -38 4 -90 3 -82 -1 -110 -6 -219 -42z"/>
<path d="M3342 510 c-8 -13 -8 -20 -2 -20 6 0 13 7 17 15 9 24 -1 27 -15 5z"/>
</g>
</svg>
